<svg width="113" height="155" viewBox="0 0 113 155" fill="none" xmlns="http://www.w3.org/2000/svg">
<path d="M13.4257 26.7626C20.8406 26.7626 26.8515 20.7716 26.8515 13.3813C26.8515 5.99101 20.8406 0 13.4257 0C6.01091 0 0 5.99101 0 13.3813C0 20.7716 6.01091 26.7626 13.4257 26.7626Z" fill="#22BD6F"/>
<path d="M57.0586 59.1007C64.4734 59.1007 70.4843 53.1097 70.4843 45.7194C70.4843 38.3291 64.4734 32.3381 57.0586 32.3381C49.6437 32.3381 43.6328 38.3291 43.6328 45.7194C43.6328 53.1097 49.6437 59.1007 57.0586 59.1007Z" fill="#22BD6F"/>
<path d="M99.5742 91.4389C106.989 91.4389 113 85.4478 113 78.0576C113 70.6673 106.989 64.6763 99.5742 64.6763C92.1593 64.6763 86.1484 70.6673 86.1484 78.0576C86.1484 85.4478 92.1593 91.4389 99.5742 91.4389Z" fill="#22BD6F"/>
<path d="M55.9414 123.777C63.3562 123.777 69.3671 117.786 69.3671 110.396C69.3671 103.005 63.3562 97.0144 55.9414 97.0144C48.5265 97.0144 42.5156 103.005 42.5156 110.396C42.5156 117.786 48.5265 123.777 55.9414 123.777Z" fill="#22BD6F"/>
<path d="M13.4257 155C20.8406 155 26.8515 149.009 26.8515 141.619C26.8515 134.228 20.8406 128.237 13.4257 128.237C6.01091 128.237 0 134.228 0 141.619C0 149.009 6.01091 155 13.4257 155Z" fill="#22BD6F"/>
</svg>
