<svg width="124" height="158" viewBox="0 0 124 158" fill="none" xmlns="http://www.w3.org/2000/svg">
<g clip-path="url(#clip0_1610_10035)">
<path d="M46.9191 26.7042C54.3227 26.7042 60.3245 20.7263 60.3245 13.3521C60.3245 5.97794 54.3227 0 46.9191 0C39.5155 0 33.5137 5.97794 33.5137 13.3521C33.5137 20.7263 39.5155 26.7042 46.9191 26.7042Z" fill="#22BD6F"/>
<path d="M13.4054 52.2958C20.809 52.2958 26.8108 46.3178 26.8108 38.9437C26.8108 31.5695 20.809 25.5916 13.4054 25.5916C6.0018 25.5916 0 31.5695 0 38.9437C0 46.3178 6.0018 52.2958 13.4054 52.2958Z" fill="#22BD6F"/>
<path d="M18.9913 81.2255C26.3949 81.2255 32.3967 75.2475 32.3967 67.8734C32.3967 60.4992 26.3949 54.5212 18.9913 54.5212C11.5877 54.5212 5.58594 60.4992 5.58594 67.8734C5.58594 75.2475 11.5877 81.2255 18.9913 81.2255Z" fill="#22BD6F"/>
<path d="M14.5226 121.282C21.9262 121.282 27.928 115.304 27.928 107.93C27.928 100.555 21.9262 94.5774 14.5226 94.5774C7.11899 94.5774 1.11719 100.555 1.11719 107.93C1.11719 115.304 7.11899 121.282 14.5226 121.282Z" fill="#22BD6F"/>
<path d="M49.1535 91.2394C56.5571 91.2394 62.5589 85.2614 62.5589 77.8873C62.5589 70.5131 56.5571 64.5352 49.1535 64.5352C41.7498 64.5352 35.748 70.5131 35.748 77.8873C35.748 85.2614 41.7498 91.2394 49.1535 91.2394Z" fill="#22BD6F"/>
<path d="M72.6124 75.662C80.016 75.662 86.0178 69.684 86.0178 62.3099C86.0178 54.9357 80.016 48.9578 72.6124 48.9578C65.2088 48.9578 59.207 54.9357 59.207 62.3099C59.207 69.684 65.2088 75.662 72.6124 75.662Z" fill="#22BD6F"/>
<path d="M79.3156 48.9576C86.7192 48.9576 92.721 42.9797 92.721 35.6055C92.721 28.2314 86.7192 22.2534 79.3156 22.2534C71.912 22.2534 65.9102 28.2314 65.9102 35.6055C65.9102 42.9797 71.912 48.9576 79.3156 48.9576Z" fill="#22BD6F"/>
<path d="M103.892 50.0704C111.295 50.0704 117.297 44.0925 117.297 36.7183C117.297 29.3442 111.295 23.3662 103.892 23.3662C96.4881 23.3662 90.4863 29.3442 90.4863 36.7183C90.4863 44.0925 96.4881 50.0704 103.892 50.0704Z" fill="#22BD6F"/>
<path d="M110.595 92.3522C117.998 92.3522 124 86.3742 124 79.0001C124 71.6259 117.998 65.6479 110.595 65.6479C103.191 65.6479 97.1895 71.6259 97.1895 79.0001C97.1895 86.3742 103.191 92.3522 110.595 92.3522Z" fill="#22BD6F"/>
<path d="M68.1437 158C75.5473 158 81.5491 152.022 81.5491 144.648C81.5491 137.274 75.5473 131.296 68.1437 131.296C60.7401 131.296 54.7383 137.274 54.7383 144.648C54.7383 152.022 60.7401 158 68.1437 158Z" fill="#22BD6F"/>
</g>
<defs>
<clipPath id="clip0_1610_10035">
<rect width="124" height="158" fill="white"/>
</clipPath>
</defs>
</svg>
